<svg width="65.315552" height="70.000000" viewBox="0 0 65.3156 70" fill="none" xmlns="http://www.w3.org/2000/svg" xmlns:xlink="http://www.w3.org/1999/xlink">
	<desc>
			Created with Pixso.
	</desc>
	<defs/>
	<path id="Vector" d="M64.97 48.33L46.5 29.73L48.55 19.63C49.08 19.84 49.64 19.95 50.21 19.95L50.22 19.95C52.83 19.98 54.97 17.89 55 15.28C55.03 12.68 52.94 10.54 50.33 10.51C47.73 10.48 45.59 12.56 45.56 15.17C45.55 15.73 45.64 16.29 45.83 16.81L34.98 18.14L17.28 0.34C17.06 0.12 16.77 0 16.46 0C16.15 0 15.86 0.12 15.64 0.33L12.33 3.62C11.88 4.08 11.88 4.82 12.33 5.27L14.11 7.08C7.21 19.76 9.45 35.47 19.62 45.72C19.72 45.81 19.82 45.88 19.94 45.93C19.87 46.33 19.83 46.73 19.83 47.13L19.83 60.66L5.83 60.66C2.61 60.67 0 63.28 0 66.5L0 68.83C0 69.47 0.52 70 1.16 70L54.83 70C55.47 70 56 69.47 56 68.83L56 66.5C55.99 63.28 53.38 60.67 50.16 60.66L36.16 60.66L36.16 54.66C38.35 55.12 40.59 55.36 42.83 55.36C48.21 55.36 53.5 54.02 58.23 51.46L60.02 53.26C60.24 53.48 60.53 53.61 60.84 53.61C61.15 53.61 61.44 53.49 61.66 53.27L64.97 49.98C65.42 49.53 65.42 48.79 64.97 48.33ZM48.58 13.63C49.49 12.72 50.97 12.73 51.88 13.64C52.79 14.55 52.78 16.03 51.87 16.94C51.43 17.37 50.84 17.62 50.22 17.62L50.22 17.62C48.93 17.61 47.89 16.56 47.89 15.27C47.9 14.66 48.14 14.06 48.58 13.63L48.58 13.63ZM45.83 21.3L44.52 27.74L41.95 25.15L45.83 21.3ZM44.51 19.32L40.31 23.5L37.06 20.23L44.51 19.32ZM50.16 63C52.09 63 53.66 64.56 53.66 66.5L53.66 67.66L2.33 67.66L2.33 66.5C2.33 64.56 3.9 63 5.83 63L50.16 63ZM33.83 58.33L33.83 60.66L22.16 60.66L22.16 58.33L33.83 58.33ZM22.16 56L22.16 47.13C22.16 44.3 24.78 42 28 42C31.21 42 33.83 44.3 33.83 47.13L33.83 56L22.16 56ZM36.16 52.29L36.16 47.13C36.16 43.01 32.5 39.66 28 39.66C25.08 39.62 22.36 41.1 20.82 43.57C11.94 34.22 9.94 20.28 15.83 8.82L56.52 49.74C50.24 52.94 43.04 53.84 36.16 52.29ZM60.86 50.79L59.21 49.14L16.45 6.11L14.79 4.46L16.45 2.81L33.8 20.27C33.81 20.27 33.82 20.28 33.82 20.29L62.51 49.14L60.86 50.79Z" fill="#212121" fill-opacity="1.000000" fill-rule="nonzero"/>
	<path id="Vector" d="M28.01 44.33L27.99 44.33C26.06 44.33 24.49 45.89 24.49 47.82C24.49 49.76 26.05 51.33 27.98 51.33L27.99 51.33C29.93 51.33 31.5 49.77 31.5 47.83C31.5 45.9 29.94 44.33 28.01 44.33ZM28.82 48.66C28.6 48.87 28.3 49 27.99 49C27.35 48.99 26.83 48.47 26.83 47.82C26.84 47.51 26.96 47.22 27.18 47C27.4 46.79 27.69 46.66 27.99 46.66C28.64 46.67 29.16 47.19 29.16 47.83C29.15 48.14 29.03 48.44 28.81 48.66L28.82 48.66Z" fill="#2196F3" fill-opacity="1.000000" fill-rule="nonzero"/>
</svg>
